<?xml version="1.0" encoding="UTF-8" standalone="no"?>
<!-- Created with Inkscape (http://www.inkscape.org/) -->

<svg
   xmlns:dc="http://purl.org/dc/elements/1.1/"
   xmlns:cc="http://creativecommons.org/ns#"
   xmlns:rdf="http://www.w3.org/1999/02/22-rdf-syntax-ns#"
   xmlns:svg="http://www.w3.org/2000/svg"
   xmlns="http://www.w3.org/2000/svg"
   xmlns:sodipodi="http://sodipodi.sourceforge.net/DTD/sodipodi-0.dtd"
   xmlns:inkscape="http://www.inkscape.org/namespaces/inkscape"
   width="16px"
   height="16px"
   id="svg2985"
   version="1.1"
   inkscape:version="0.48.1 r9760"
   sodipodi:docname="Collaboro.svg"
   inkscape:export-filename="/home/jcanovas/eclipses/eclipse-3.7.1-xtext/workspace/fr.inria.atlanmod.collaboro.ui/icons/collaboro.png"
   inkscape:export-xdpi="90"
   inkscape:export-ydpi="90">
  <defs
     id="defs2987">
    <filter
       inkscape:collect="always"
       id="filter3814">
      <feGaussianBlur
         inkscape:collect="always"
         stdDeviation="0.20668745"
         id="feGaussianBlur3816" />
    </filter>
  </defs>
  <sodipodi:namedview
     id="base"
     pagecolor="#ffffff"
     bordercolor="#666666"
     borderopacity="1.0"
     inkscape:pageopacity="0.0"
     inkscape:pageshadow="2"
     inkscape:zoom="31.392433"
     inkscape:cx="7.3799348"
     inkscape:cy="9.6701273"
     inkscape:current-layer="layer1"
     showgrid="true"
     inkscape:grid-bbox="true"
     inkscape:document-units="px"
     inkscape:object-paths="false"
     inkscape:snap-nodes="true"
     inkscape:snap-bbox="false"
     inkscape:window-width="1247"
     inkscape:window-height="1127"
     inkscape:window-x="661"
     inkscape:window-y="26"
     inkscape:window-maximized="0">
    <inkscape:grid
       type="xygrid"
       id="grid2993"
       empspacing="5"
       visible="true"
       enabled="true"
       snapvisiblegridlinesonly="true" />
  </sodipodi:namedview>
  <metadata
     id="metadata2990">
    <rdf:RDF>
      <cc:Work
         rdf:about="">
        <dc:format>image/svg+xml</dc:format>
        <dc:type
           rdf:resource="http://purl.org/dc/dcmitype/StillImage" />
        <dc:title></dc:title>
      </cc:Work>
    </rdf:RDF>
  </metadata>
  <g
     id="layer1"
     inkscape:label="Layer 1"
     inkscape:groupmode="layer">
    <g
       id="g3999"
       transform="translate(0.1041815,0)">
      <path
         sodipodi:type="arc"
         style="fill:none;stroke:#ff0e00;stroke-width:0.36872709;stroke-linecap:round;stroke-miterlimit:4;stroke-opacity:1;stroke-dasharray:none;stroke-dashoffset:0"
         id="path3954"
         sodipodi:cx="8"
         sodipodi:cy="7.5"
         sodipodi:rx="5"
         sodipodi:ry="3.5"
         d="m 12.153302,5.5512726 c 1.537504,1.6056639 0.9244,3.7797867 -1.369406,4.8560394 C 8.4900906,11.483564 5.384201,11.054391 3.8466975,9.4487274 2.3091941,7.8430635 2.9222981,5.6689407 5.2161037,4.5926883 6.6664361,3.9121931 8.5188287,3.810573 10.102896,4.3246047"
         sodipodi:start="5.6926819"
         sodipodi:end="11.429658"
         transform="matrix(1.3560169,0,0,-1.3560169,-2.9523167,17.519649)"
         sodipodi:open="true" />
      <path
         style="fill:none;stroke:#ff0e00;stroke-width:0.50000012;stroke-linecap:round;stroke-linejoin:miter;stroke-miterlimit:4;stroke-opacity:1;stroke-dasharray:none"
         d="m 13.397863,10.173913 0.06155,4.193532 -2.706868,-2.711588"
         id="path3956"
         inkscape:connector-curvature="0"
         sodipodi:nodetypes="ccc" />
      <path
         style="fill:#f9beb8;fill-opacity:1;stroke:#ff0e00;stroke-width:0.10000001;stroke-linecap:round;stroke-miterlimit:4;stroke-opacity:1;stroke-dasharray:none;stroke-dashoffset:0"
         d="m 13.187817,12.855432 c -0.0099,-0.48256 -0.02121,-1.31077 -0.02521,-1.840462 l -0.0074,-0.963079 0.06808,-0.055308 c 0.03745,-0.030416 0.06808,-0.069687 0.06808,-0.087264 0,-0.017577 0.05792,-0.097174 0.128728,-0.1768977 0.508853,-0.5729338 0.829283,-1.1859356 0.94689,-1.8114553 0.07504,-0.3991078 0.04853,-1.0224361 -0.05906,-1.3887477 C 14.208431,6.1931256 13.951759,5.6617995 13.752642,5.3825425 12.544331,3.6879057 9.8666116,2.6700975 7.1892489,2.887779 5.8242505,2.9987594 4.5434196,3.3917827 3.5646101,4.0000001 1.7950575,5.0995725 1.0254849,6.7257923 1.5287266,8.3021126 1.8636899,9.3513256 2.6876043,10.2422 3.9427934,10.912369 c 1.7636101,0.941628 4.1530771,1.184958 6.2324496,0.634678 0.224641,-0.05944 0.474678,-0.114147 0.555639,-0.121546 l 0.147208,-0.01339 1.163829,1.160395 1.16383,1.160396 -0.01793,-0.877385 0,0 z"
         id="path3958"
         inkscape:connector-curvature="0" />
      <rect
         y="6"
         x="4"
         height="2"
         width="4"
         id="rect3993"
         style="fill:#f9beb8;fill-opacity:1;stroke:#810500;stroke-width:0.40000001;stroke-linecap:round;stroke-miterlimit:4;stroke-opacity:1;stroke-dasharray:none;stroke-dashoffset:0" />
      <rect
         y="4"
         x="10"
         height="3"
         width="1"
         id="rect3995"
         style="fill:#f9beb8;fill-opacity:1;stroke:#810500;stroke-width:0.40000001;stroke-linecap:round;stroke-miterlimit:4;stroke-opacity:1;stroke-dasharray:none;stroke-dashoffset:0" />
      <path
         sodipodi:open="true"
         sodipodi:end="11.931453"
         sodipodi:start="5.6926819"
         d="M 11.83066,8.4432207 C 12.138161,8.9019819 12.01554,9.5231598 11.556779,9.8306605 11.098018,10.138161 10.47684,10.01554 10.16934,9.5567793 9.8618388,9.0980181 9.9844596,8.4768402 10.443221,8.1693395 c 0.444419,-0.2978873 1.044574,-0.1932052 1.3619,0.2375493"
         sodipodi:ry="1"
         sodipodi:rx="1"
         sodipodi:cy="9"
         sodipodi:cx="11"
         id="path3997"
         style="fill:#f9beb8;fill-opacity:1;stroke:#810500;stroke-width:0.40000001;stroke-linecap:round;stroke-miterlimit:4;stroke-opacity:1;stroke-dasharray:none;stroke-dashoffset:0"
         sodipodi:type="arc" />
    </g>
  </g>
</svg>
