<?xml version="1.0" encoding="UTF-8" standalone="no"?>
<!-- Created with Inkscape (http://www.inkscape.org/) -->

<svg
   xmlns:dc="http://purl.org/dc/elements/1.1/"
   xmlns:cc="http://creativecommons.org/ns#"
   xmlns:rdf="http://www.w3.org/1999/02/22-rdf-syntax-ns#"
   xmlns:svg="http://www.w3.org/2000/svg"
   xmlns="http://www.w3.org/2000/svg"
   xmlns:sodipodi="http://sodipodi.sourceforge.net/DTD/sodipodi-0.dtd"
   xmlns:inkscape="http://www.inkscape.org/namespaces/inkscape"
   width="16px"
   height="16px"
   id="svg2985"
   version="1.1"
   inkscape:version="0.48.1 r9760"
   sodipodi:docname="commentRejected.svg"
   inkscape:export-filename="/home/jcanovas/eclipses/eclipse-3.7.1-xtext/workspace/fr.inria.atlanmod.collaboro.ui/icons/commentRejected.png"
   inkscape:export-xdpi="90"
   inkscape:export-ydpi="90">
  <defs
     id="defs2987">
    <filter
       inkscape:collect="always"
       id="filter3814">
      <feGaussianBlur
         inkscape:collect="always"
         stdDeviation="0.20668745"
         id="feGaussianBlur3816" />
    </filter>
    <filter
       id="filter3814-7"
       inkscape:collect="always">
      <feGaussianBlur
         id="feGaussianBlur3816-9"
         stdDeviation="0.20668745"
         inkscape:collect="always" />
    </filter>
    <filter
       id="filter3814-5"
       inkscape:collect="always">
      <feGaussianBlur
         id="feGaussianBlur3816-1"
         stdDeviation="0.20668745"
         inkscape:collect="always" />
    </filter>
    <filter
       id="filter3814-4"
       inkscape:collect="always">
      <feGaussianBlur
         id="feGaussianBlur3816-93"
         stdDeviation="0.20668745"
         inkscape:collect="always" />
    </filter>
  </defs>
  <sodipodi:namedview
     id="base"
     pagecolor="#ffffff"
     bordercolor="#666666"
     borderopacity="1.0"
     inkscape:pageopacity="0.0"
     inkscape:pageshadow="2"
     inkscape:zoom="15.696217"
     inkscape:cx="0.0048651331"
     inkscape:cy="6.7982442"
     inkscape:current-layer="layer1"
     showgrid="true"
     inkscape:grid-bbox="true"
     inkscape:document-units="px"
     inkscape:object-paths="false"
     inkscape:snap-nodes="true"
     inkscape:snap-bbox="false"
     inkscape:window-width="1247"
     inkscape:window-height="1127"
     inkscape:window-x="48"
     inkscape:window-y="26"
     inkscape:window-maximized="0">
    <inkscape:grid
       type="xygrid"
       id="grid2993"
       empspacing="5"
       visible="true"
       enabled="true"
       snapvisiblegridlinesonly="true" />
  </sodipodi:namedview>
  <metadata
     id="metadata2990">
    <rdf:RDF>
      <cc:Work
         rdf:about="">
        <dc:format>image/svg+xml</dc:format>
        <dc:type
           rdf:resource="http://purl.org/dc/dcmitype/StillImage" />
        <dc:title></dc:title>
      </cc:Work>
    </rdf:RDF>
  </metadata>
  <g
     id="layer1"
     inkscape:label="Layer 1"
     inkscape:groupmode="layer">
    <g
       id="g3866"
       transform="matrix(0.81006397,0,0,0.81006397,-1.1512623,-1.5274127)">
      <path
         sodipodi:open="true"
         transform="matrix(-1,0,0,-1,16.102896,14.324605)"
         sodipodi:end="11.429658"
         sodipodi:start="5.6926819"
         d="m 12.153302,5.5512726 c 1.537504,1.6056639 0.9244,3.7797867 -1.369406,4.8560394 C 8.4900906,11.483564 5.384201,11.054391 3.8466975,9.4487274 2.3091941,7.8430635 2.9222981,5.6689407 5.2161037,4.5926883 6.6664361,3.9121931 8.5188287,3.810573 10.102896,4.3246047"
         sodipodi:ry="3.5"
         sodipodi:rx="5"
         sodipodi:cy="7.5"
         sodipodi:cx="8"
         id="path3856"
         style="fill:none;stroke:#0500ff;stroke-width:0.61723536;stroke-linecap:round;stroke-miterlimit:4;stroke-opacity:1;stroke-dasharray:none;stroke-dashoffset:0"
         sodipodi:type="arc" />
      <path
         sodipodi:nodetypes="ccc"
         inkscape:connector-curvature="0"
         id="path3858"
         d="M 4.045392,8.9074627 4,12 5.9961909,10.000328"
         style="fill:none;stroke:#0500ff;stroke-width:0.61723536;stroke-linecap:round;stroke-linejoin:miter;stroke-miterlimit:4;stroke-opacity:1;stroke-dasharray:none" />
    </g>
    <path
       style="fill:#b8bbf9;fill-opacity:1;stroke:#0500ff;stroke-width:0.1;stroke-linecap:round;stroke-miterlimit:4;stroke-opacity:1;stroke-dasharray:none;stroke-dashoffset:0"
       d="m 2.2512412,7.290101 c 0.00589,-0.288274 0.012666,-0.783034 0.01506,-1.099464 l 0.00435,-0.575329 -0.040666,-0.03304 c -0.022366,-0.01817 -0.040666,-0.04163 -0.040666,-0.05213 0,-0.0105 -0.034605,-0.05805 -0.076899,-0.105676 C 1.8084393,5.0822 1.6170198,4.716002 1.5467629,4.342326 1.501936,4.103905 1.5177722,3.7315375 1.5820452,3.5127086 1.6415424,3.3101397 1.7948748,2.9927338 1.9138238,2.8259099 2.6356511,1.8135595 4.2352801,1.2055363 5.8346961,1.3355759 6.6501245,1.4018739 7.4152739,1.6366601 8,2 9.0571035,2.6568679 9.516835,3.628347 9.2162059,4.570017 9.0161043,5.196801 8.5239098,5.728996 7.7740795,6.129345 6.720525,6.691859 5.2930932,6.837221 4.0509077,6.508492 3.9167109,6.47298 3.7673425,6.440302 3.718978,6.435878 l -0.087936,-0.008 -0.6952543,0.693202 -0.6952544,0.693203 0.010708,-0.524136 0,0 z"
       id="path3889"
       inkscape:connector-curvature="0" />
    <g
       id="g5557">
      <path
         sodipodi:type="arc"
         style="fill:none;stroke:#ff0e00;stroke-width:0.61723536000000001;stroke-linecap:round;stroke-miterlimit:4;stroke-opacity:1;stroke-dasharray:none;stroke-dashoffset:0"
         id="path3954"
         sodipodi:cx="8"
         sodipodi:cy="7.5"
         sodipodi:rx="5"
         sodipodi:ry="3.5"
         d="M 12.153302,5.5512726 A 5,3.5 0 1 1 10.102896,4.3246047"
         sodipodi:start="5.6926819"
         sodipodi:end="11.429658"
         transform="matrix(0.81006397,0,0,-0.81006397,4.0207101,16.250524)"
         sodipodi:open="true" />
      <path
         style="fill:none;stroke:#ff0e00;stroke-width:0.50000012000000005;stroke-linecap:round;stroke-linejoin:miter;stroke-miterlimit:4;stroke-opacity:1;stroke-dasharray:none"
         d="m 13.78806,11.862292 0.03677,2.505153 -1.617042,-1.619862"
         id="path3956"
         inkscape:connector-curvature="0"
         sodipodi:nodetypes="ccc" />
      <path
         style="fill:#f9beb8;fill-opacity:1;stroke:#f6635b;stroke-width:0.10000000000000001;stroke-linecap:round;stroke-miterlimit:4;stroke-opacity:1;stroke-dasharray:none;stroke-dashoffset:0"
         d="m 13.662582,13.464191 c -0.0059,-0.288274 -0.01267,-0.783034 -0.01506,-1.099464 l -0.0044,-0.575329 0.04067,-0.03304 c 0.02237,-0.01817 0.04067,-0.04163 0.04067,-0.05213 0,-0.0105 0.0346,-0.05805 0.0769,-0.105676 0.303981,-0.342262 0.495401,-0.70846 0.565658,-1.082136 C 14.41185,10.277995 14.39601,9.9056281 14.33174,9.6867991 14.272281,9.4842301 14.118949,9.1668239 14,9 13.278173,7.9876496 11.678544,7.3796264 10.079128,7.509666 9.2636986,7.575964 8.4985496,7.8107502 7.9138236,8.1740901 c -1.057104,0.6568679 -1.516835,1.628347 -1.216206,2.5700169 0.200102,0.626784 0.692296,1.158979 1.442127,1.559328 1.053554,0.562514 2.4809854,0.707876 3.7231714,0.379147 0.134197,-0.03551 0.283565,-0.06819 0.33193,-0.07261 l 0.08794,-0.008 0.695254,0.693202 0.695254,0.693203 -0.01071,-0.524136 0,0 z"
         id="path3958"
         inkscape:connector-curvature="0" />
    </g>
    <g
       inkscape:label="Layer 1"
       id="layer1-1"
       transform="matrix(0.38085798,0,0,0.38085798,10.11146,-0.04080522)">
      <g
         transform="matrix(0.89627324,0,0,0.89627324,0.9736792,0.70344169)"
         id="g4928">
        <g
           id="g4919"
           transform="translate(-0.31534654,-0.67574258)"
           style="stroke:#4db440;stroke-width:2.92952037;stroke-opacity:1">
          <path
             inkscape:connector-curvature="0"
             id="path4909"
             d="M 6.1402494,9.956916 15.513293,1.6653352"
             style="fill:none;stroke:#4db440;stroke-width:1.17180824;stroke-linecap:round;stroke-linejoin:miter;stroke-miterlimit:4;stroke-opacity:1;stroke-dasharray:none" />
          <path
             inkscape:connector-curvature="0"
             id="path4911"
             d="M 0.76451548,8.6256113 6.0842686,16"
             style="fill:none;stroke:#4db440;stroke-width:1.17180812;stroke-linecap:round;stroke-linejoin:miter;stroke-miterlimit:4;stroke-opacity:1;stroke-dasharray:none" />
          <path
             inkscape:connector-curvature="0"
             id="path4913"
             d="M 15.545148,1.6334804 6.1479786,15.904436"
             style="fill:none;stroke:#4db440;stroke-width:1.17180812;stroke-linecap:round;stroke-linejoin:miter;stroke-miterlimit:4;stroke-opacity:1;stroke-dasharray:none" />
          <path
             inkscape:connector-curvature="0"
             id="path4915"
             d="M 0.76451544,8.6415384 3.5836662,6.6665401"
             style="fill:none;stroke:#4db440;stroke-width:1.171808;stroke-linecap:round;stroke-linejoin:miter;stroke-miterlimit:4;stroke-opacity:1;stroke-dasharray:none" />
          <path
             inkscape:connector-curvature="0"
             id="path4917"
             d="M 3.6314485,6.6665404 6.0524142,9.947586"
             style="fill:none;stroke:#4db440;stroke-width:1.17180812;stroke-linecap:round;stroke-linejoin:miter;stroke-miterlimit:4;stroke-opacity:1;stroke-dasharray:none" />
        </g>
        <path
           style="fill:#4db440;fill-opacity:1;stroke:#4db440;stroke-width:1.17180812;stroke-linecap:round;stroke-miterlimit:4;stroke-opacity:1;stroke-dasharray:none;stroke-dashoffset:0"
           d="M 3.3515758,11.405564 C 1.9606042,9.493807 0.82253646,7.9077698 0.82253646,7.8810373 c 0,-0.026733 0.56279534,-0.438947 1.25065614,-0.9160308 L 3.3238489,6.0975806 3.9074272,6.8820859 c 1.8791684,2.5261679 1.8186313,2.4524221 2.0231043,2.4645282 0.1845407,0.010926 0.2125506,-0.012541 4.3185775,-3.6180875 2.273058,-1.9959965 4.140283,-3.6228037 4.14939,-3.6151268 0.02372,0.019998 -8.4500905,12.7680862 -8.4871057,12.7680862 -0.016928,0 -1.1688459,-1.564164 -2.5598175,-3.475922 z"
           id="path4926"
           inkscape:connector-curvature="0" />
      </g>
    </g>
  </g>
</svg>
