<?xml version="1.0" encoding="UTF-8" standalone="no"?>
<!-- Created with Inkscape (http://www.inkscape.org/) -->

<svg
   xmlns:dc="http://purl.org/dc/elements/1.1/"
   xmlns:cc="http://creativecommons.org/ns#"
   xmlns:rdf="http://www.w3.org/1999/02/22-rdf-syntax-ns#"
   xmlns:svg="http://www.w3.org/2000/svg"
   xmlns="http://www.w3.org/2000/svg"
   xmlns:sodipodi="http://sodipodi.sourceforge.net/DTD/sodipodi-0.dtd"
   xmlns:inkscape="http://www.inkscape.org/namespaces/inkscape"
   width="16px"
   height="16px"
   id="svg2985"
   version="1.1"
   inkscape:version="0.48.1 r9760"
   sodipodi:docname="collaborationView.svg"
   inkscape:export-filename="/home/jcanovas/eclipses/eclipse-3.7.1-xtext/workspace/fr.inria.atlanmod.collaboro.ui/icons/collaborationView.png"
   inkscape:export-xdpi="90"
   inkscape:export-ydpi="90">
  <defs
     id="defs2987">
    <filter
       inkscape:collect="always"
       id="filter3814">
      <feGaussianBlur
         inkscape:collect="always"
         stdDeviation="0.20668745"
         id="feGaussianBlur3816" />
    </filter>
  </defs>
  <sodipodi:namedview
     id="base"
     pagecolor="#ffffff"
     bordercolor="#666666"
     borderopacity="1.0"
     inkscape:pageopacity="0.0"
     inkscape:pageshadow="2"
     inkscape:zoom="31.392433"
     inkscape:cx="7.2347513"
     inkscape:cy="7.3180883"
     inkscape:current-layer="layer1"
     showgrid="true"
     inkscape:grid-bbox="true"
     inkscape:document-units="px"
     inkscape:object-paths="false"
     inkscape:snap-nodes="true"
     inkscape:snap-bbox="false"
     inkscape:window-width="1247"
     inkscape:window-height="1127"
     inkscape:window-x="661"
     inkscape:window-y="26"
     inkscape:window-maximized="0">
    <inkscape:grid
       type="xygrid"
       id="grid2993"
       empspacing="5"
       visible="true"
       enabled="true"
       snapvisiblegridlinesonly="true" />
  </sodipodi:namedview>
  <metadata
     id="metadata2990">
    <rdf:RDF>
      <cc:Work
         rdf:about="">
        <dc:format>image/svg+xml</dc:format>
        <dc:type
           rdf:resource="http://purl.org/dc/dcmitype/StillImage" />
        <dc:title></dc:title>
      </cc:Work>
    </rdf:RDF>
  </metadata>
  <g
     id="layer1"
     inkscape:label="Layer 1"
     inkscape:groupmode="layer">
    <g
       id="g4068"
       transform="matrix(1.1381846,0,0,1.1381846,-0.26657215,-0.35630602)">
      <path
         transform="matrix(0.77833615,0,0,0.77833615,1.0362558,0.56344935)"
         sodipodi:open="true"
         sodipodi:end="7.0739397"
         sodipodi:start="2.3448931"
         d="M 4.5046475,9.5752637 C 2.5300838,7.6448338 2.4943064,4.4792111 4.4247363,2.5046475 6.3551662,0.53008384 9.5207889,0.49430638 11.495353,2.4247363 c 1.974563,1.9304299 2.010341,5.0960526 0.07991,7.0706162 -0.01941,0.019852 -0.03898,0.039542 -0.05872,0.059068"
         sodipodi:ry="5"
         sodipodi:rx="5"
         sodipodi:cy="6"
         sodipodi:cx="8"
         id="path4028"
         style="fill:none;stroke:#cec705;stroke-width:0.45152324;stroke-linecap:round;stroke-miterlimit:4;stroke-opacity:1;stroke-dasharray:none;stroke-dashoffset:0"
         sodipodi:type="arc" />
      <path
         sodipodi:nodetypes="cc"
         inkscape:connector-curvature="0"
         id="path4030"
         d="m 4.5422355,7.9892395 c 1.5566723,1.556676 1.1640372,4.2492525 1.1640372,4.2492525"
         style="fill:none;stroke:#cec705;stroke-width:0.35143685;stroke-linecap:round;stroke-linejoin:miter;stroke-miterlimit:4;stroke-opacity:1;stroke-dasharray:none" />
      <path
         sodipodi:nodetypes="cc"
         style="fill:none;stroke:#cec705;stroke-width:0.35143685;stroke-linecap:round;stroke-linejoin:miter;stroke-miterlimit:4;stroke-opacity:1;stroke-dasharray:none"
         d="M 10.016885,7.9892359 C 8.460214,9.5459155 8.8196173,12.238492 8.8196173,12.238492"
         id="path4032"
         inkscape:connector-curvature="0" />
      <path
         inkscape:connector-curvature="0"
         id="path4034"
         d="m 5.7062727,12.238492 3.1133446,0"
         style="fill:none;stroke:#cec705;stroke-width:0.35143685;stroke-linecap:round;stroke-linejoin:miter;stroke-miterlimit:4;stroke-opacity:1;stroke-dasharray:none" />
      <path
         style="fill:none;stroke:#cec705;stroke-width:0.35143685;stroke-linecap:round;stroke-linejoin:miter;stroke-miterlimit:4;stroke-opacity:1;stroke-dasharray:none"
         d="m 5.7062727,12.790138 3.1133446,0"
         id="path4036"
         inkscape:connector-curvature="0" />
      <path
         inkscape:connector-curvature="0"
         id="path4038"
         d="m 5.7062727,13.341785 3.1133446,0"
         style="fill:none;stroke:#cec705;stroke-width:0.35143685;stroke-linecap:round;stroke-linejoin:miter;stroke-miterlimit:4;stroke-opacity:1;stroke-dasharray:none" />
      <path
         sodipodi:type="arc"
         style="fill:none;stroke:#cec705;stroke-width:0.45152324;stroke-linecap:round;stroke-miterlimit:4;stroke-opacity:1;stroke-dasharray:none;stroke-dashoffset:0"
         id="path4054"
         sodipodi:cx="8"
         sodipodi:cy="6"
         sodipodi:rx="5"
         sodipodi:ry="5"
         d="M 4.5046475,9.5752637 C 2.5300838,7.6448338 2.4943064,4.4792111 4.4247363,2.5046475 6.3551662,0.53008384 9.5207889,0.49430638 11.495353,2.4247363 c 1.974563,1.9304299 2.010341,5.0960526 0.07991,7.0706162 -0.01941,0.019852 -0.03898,0.039542 -0.05872,0.059068"
         sodipodi:start="2.3448931"
         sodipodi:end="7.0739397"
         sodipodi:open="true"
         transform="matrix(0.77833615,0,0,0.77833615,1.0362558,0.56344935)" />
      <path
         style="fill:none;stroke:#cec705;stroke-width:0.35143685;stroke-linecap:round;stroke-linejoin:miter;stroke-miterlimit:4;stroke-opacity:1;stroke-dasharray:none"
         d="m 4.5422355,7.9892395 c 1.5566723,1.556676 1.1640372,4.2492525 1.1640372,4.2492525"
         id="path4056"
         inkscape:connector-curvature="0"
         sodipodi:nodetypes="cc" />
      <path
         inkscape:connector-curvature="0"
         id="path4058"
         d="M 10.016885,7.9892359 C 8.460214,9.5459155 8.8196173,12.238492 8.8196173,12.238492"
         style="fill:none;stroke:#cec705;stroke-width:0.35143685;stroke-linecap:round;stroke-linejoin:miter;stroke-miterlimit:4;stroke-opacity:1;stroke-dasharray:none"
         sodipodi:nodetypes="cc" />
      <path
         style="fill:none;stroke:#cec705;stroke-width:0.35143685;stroke-linecap:round;stroke-linejoin:miter;stroke-miterlimit:4;stroke-opacity:1;stroke-dasharray:none"
         d="m 5.7062727,12.238492 3.1133446,0"
         id="path4060"
         inkscape:connector-curvature="0" />
      <path
         inkscape:connector-curvature="0"
         id="path4062"
         d="m 5.7062727,12.790138 3.1133446,0"
         style="fill:none;stroke:#cec705;stroke-width:0.35143685;stroke-linecap:round;stroke-linejoin:miter;stroke-miterlimit:4;stroke-opacity:1;stroke-dasharray:none" />
      <path
         style="fill:none;stroke:#cec705;stroke-width:0.35143685;stroke-linecap:round;stroke-linejoin:miter;stroke-miterlimit:4;stroke-opacity:1;stroke-dasharray:none"
         d="m 5.7062727,13.341785 3.1133446,0"
         id="path4064"
         inkscape:connector-curvature="0" />
      <path
         inkscape:connector-curvature="0"
         id="path4066"
         d="M 5.9463768,11.38788 C 5.9414373,10.699149 5.8998563,10.346758 5.75827,9.7937125 5.5536661,8.9945167 5.2362756,8.4178793 4.67681,7.8289077 4.2472074,7.3766481 3.9877282,6.975727 3.8207621,6.5062281 3.5044225,5.6166998 3.5194081,4.7190908 3.8650081,3.8559691 4.2506308,2.8928925 5.085459,2.0990582 6.0624943,1.7663897 6.4644565,1.6295264 6.7797671,1.5772335 7.2251948,1.5735608 c 0.2277619,-0.00188 0.5216226,0.015827 0.6530237,0.039345 1.3023753,0.2330966 2.3723255,1.1272838 2.8345545,2.368916 0.158686,0.4262604 0.205208,0.7158885 0.203375,1.2661411 -0.0019,0.5800092 -0.05671,0.8666694 -0.265027,1.3869158 C 10.47958,7.0632837 10.321218,7.3013131 9.8360056,7.8600576 9.4751693,8.2755775 9.298211,8.5340251 9.1129485,8.916085 8.7555853,9.653062 8.5790243,10.532167 8.5790243,11.574518 l 0,0.45852 -1.3140109,-9.6e-5 -1.314011,-9.5e-5 -0.00463,-0.644963 0,-4e-6 z"
         style="fill:#f9f4b8;fill-opacity:1;stroke:#cec705;stroke-width:0.35143685;stroke-linecap:round;stroke-miterlimit:4;stroke-opacity:1;stroke-dasharray:none;stroke-dashoffset:0" />
    </g>
  </g>
</svg>
